<svg width="15" height="16" viewBox="0 0 15 16" fill="none" xmlns="http://www.w3.org/2000/svg">
<path d="M2.10324 11.0818C2.63904 12.0106 3.39309 12.795 4.30016 13.3669C5.20723 13.9388 6.23999 14.2811 7.30909 14.3641C8.37819 14.4472 9.45143 14.2685 10.4359 13.8435C11.4204 13.4185 12.2866 12.76 12.9594 11.9251C10.2829 10.8974 8.65021 9.63717 7.67171 7.76904C6.68092 5.87822 6.40769 3.83614 6.9532 1.23626C6.10422 1.34876 5.27982 1.62671 4.51877 2.06633C3.00296 2.94157 1.89691 4.38309 1.44392 6.07379C0.990925 7.7645 1.22809 9.56591 2.10324 11.0818ZM11.5914 14.3179C10.604 14.8869 9.50053 15.2248 8.36385 15.3063C7.22717 15.3879 6.08679 15.2108 5.02831 14.7886C3.96983 14.3663 3.02075 13.7098 2.2523 12.8682C1.48385 12.0267 0.916007 11.022 0.591389 9.92966C0.266769 8.83727 0.193809 7.68554 0.377984 6.56093C0.562159 5.43631 0.998684 4.36801 1.65479 3.43624C2.3109 2.50446 3.16955 1.7334 4.16629 1.18095C5.16302 0.628492 6.27195 0.308987 7.40983 0.246416C7.49804 0.241691 7.58613 0.257668 7.66707 0.293069C7.748 0.32847 7.81953 0.382314 7.87594 0.450297C7.93234 0.51828 7.97206 0.598516 7.99192 0.684591C8.01178 0.770667 8.01123 0.860195 7.99031 0.94602C7.33987 3.61018 7.58 5.55489 8.51029 7.33037C9.3933 9.01698 10.9154 10.195 13.7573 11.2132C13.8389 11.2423 13.9127 11.2897 13.9731 11.3518C14.0334 11.414 14.0787 11.4892 14.1053 11.5716C14.132 11.654 14.1394 11.7414 14.1269 11.8271C14.1144 11.9128 14.0824 11.9945 14.0334 12.0659C13.3976 12.9885 12.5635 13.7573 11.5923 14.316L11.5914 14.3179Z" fill="#C4C8DE"/>
</svg>
